<svg width="70" height="49" viewBox="0 0 70 49" fill="none" xmlns="http://www.w3.org/2000/svg">
<path d="M65.4692 19.0567L60.5692 15.4567C59.9692 15.0567 55.3692 11.5567 54.9692 11.2567H54.8692C54.7692 11.1567 54.7692 10.9567 54.6692 10.8567C50.6692 4.45671 43.2692 0.656708 34.8692 0.656708C26.4692 0.656708 19.0692 4.45671 15.0692 10.8567C14.9692 10.9567 14.8692 11.1567 14.8692 11.2567C14.8692 11.2567 14.8692 11.2567 14.7692 11.2567C14.4692 11.5567 9.86922 14.9567 9.16922 15.4567L4.26922 19.0567C0.869224 21.1567 -0.230776 25.4567 1.66922 28.9567C4.16922 33.4567 8.26922 38.9567 13.1692 39.0567C13.4692 39.0567 13.6692 39.0567 13.9692 38.9567C14.5692 38.7567 15.1692 38.3567 15.4692 37.7567C15.5692 37.6567 15.5692 37.5567 15.6692 37.4567C19.9692 45.0567 30.3692 48.3567 34.8692 48.3567C40.3692 48.3567 49.7692 44.9567 54.0692 37.4567C54.1692 37.5567 54.1692 37.6567 54.2692 37.7567C54.5692 38.3567 55.1692 38.7567 55.7692 38.9567C56.0692 39.0567 56.2692 39.0567 56.5692 39.0567C61.4692 38.9567 65.4692 33.5567 68.0692 28.9567C70.0692 25.5567 68.8692 21.1567 65.4692 19.0567Z" fill="#F8F8F8"/>
<path d="M65.4692 19.0567L60.5692 15.4567C59.9692 15.0567 55.3692 11.5567 54.9692 11.2567H54.8692C54.7692 11.1567 54.7692 10.9567 54.6692 10.8567C50.6692 4.45671 43.2692 0.656708 34.8692 0.656708C26.4692 0.656708 19.0692 4.45671 15.0692 10.8567C14.9692 10.9567 14.8692 11.1567 14.8692 11.2567C14.8692 11.2567 14.8692 11.2567 14.7692 11.2567C14.4692 11.5567 9.86922 14.9567 9.16922 15.4567L4.26922 19.0567C0.869224 21.1567 -0.230776 25.4567 1.66922 28.9567C4.16922 33.4567 8.26922 38.9567 13.1692 39.0567C13.4692 39.0567 13.6692 39.0567 13.9692 38.9567C14.5692 38.7567 15.1692 38.3567 15.4692 37.7567C15.5692 37.6567 15.5692 37.5567 15.6692 37.4567C19.9692 45.0567 30.3692 48.3567 34.8692 48.3567C40.3692 48.3567 49.7692 44.9567 54.0692 37.4567C54.1692 37.5567 54.1692 37.6567 54.2692 37.7567C54.5692 38.3567 55.1692 38.7567 55.7692 38.9567C56.0692 39.0567 56.2692 39.0567 56.5692 39.0567C61.4692 38.9567 65.4692 33.5567 68.0692 28.9567C70.0692 25.5567 68.8692 21.1567 65.4692 19.0567ZM66.7692 28.2567C64.3692 32.4567 60.7692 37.4567 56.5692 37.5567C56.4692 37.5567 56.3692 37.5567 56.2692 37.4567C55.9692 37.3567 55.7692 37.1567 55.5692 36.9567C55.3692 36.5567 55.1692 36.0567 54.8692 35.5567C54.5692 34.7567 54.3692 33.7567 54.1692 32.5567C53.8692 30.0567 54.0692 26.3567 55.3692 20.9567C55.4692 20.5567 55.5692 20.2567 55.6692 19.8567C55.7692 19.5567 55.7692 19.2567 55.8692 18.9567C55.9692 18.6567 55.8692 18.3567 55.6692 18.2567C55.5692 18.1567 55.5692 18.1567 55.4692 18.1567H55.3692C54.9692 18.0567 54.5692 18.2567 54.4692 18.6567C54.2692 19.3567 54.0692 20.0567 53.9692 20.6567C52.1692 28.3567 52.4692 32.6567 53.2692 35.3567C53.1692 35.5567 53.0692 35.7567 52.9692 36.0567C49.3692 43.2567 40.0692 46.6567 34.8692 46.6567C30.5692 46.6567 20.4692 43.4567 16.7692 35.9567C16.6692 35.7567 16.5692 35.5567 16.4692 35.3567C17.2692 32.6567 17.5692 28.3567 15.7692 20.5567C15.5692 19.8567 15.4692 19.2567 15.2692 18.5567C15.1692 18.1567 14.7692 17.9567 14.3692 18.0567C14.3692 18.0567 14.3692 18.0567 14.2692 18.0567C14.1692 18.0567 14.0692 18.1567 14.0692 18.1567C13.8692 18.3567 13.7692 18.6567 13.7692 18.9567C13.8692 19.2567 13.9692 19.5567 13.9692 19.8567C14.0692 20.2567 14.1692 20.5567 14.2692 20.9567C15.5692 26.6567 15.7692 30.3567 15.4692 32.8567C15.3692 33.9567 15.0692 34.8567 14.7692 35.5567C14.5692 36.0567 14.3692 36.4567 14.1692 36.8567C14.0692 37.1567 13.7692 37.2567 13.4692 37.3567C13.3692 37.3567 13.1692 37.4567 13.1692 37.4567C8.96922 37.3567 5.36922 32.3567 2.96922 28.1567C1.46922 25.4567 2.36922 21.9567 5.06922 20.2567L9.96922 16.6567C10.3692 16.3567 12.0692 15.1567 13.4692 14.0567C13.8692 13.7567 14.2692 13.4567 14.5692 13.2567L16.1692 12.0567C16.2692 11.9567 16.3692 11.7567 16.3692 11.6567C20.0692 5.75671 26.9692 2.15671 34.8692 2.15671C42.7692 2.15671 49.5692 5.65671 53.3692 11.6567C53.4692 11.7567 53.4692 11.9567 53.5692 12.0567L54.8692 13.0567C55.2692 13.3567 55.7692 13.7567 56.2692 14.1567C57.6692 15.2567 59.3692 16.4567 59.6692 16.7567L60.4692 17.3567L64.5692 20.4567C67.3692 22.0567 68.3692 25.4567 66.7692 28.2567Z" fill="#3C3C3B"/>
</svg>
