<svg width="91" height="71" viewBox="0 0 91 71" fill="none" xmlns="http://www.w3.org/2000/svg">
<g clip-path="url(#clip0_137_69)">
<path d="M13.2093 58.8353C14.0639 59.4409 14.6987 60.216 15.187 61.1848C15.6509 62.1295 15.8707 63.1225 15.8463 64.1641C15.773 65.8596 15.1138 67.2886 13.8441 68.4513C12.5745 69.6139 11.0851 70.1952 9.35149 70.1952H2.07539C1.51382 70.1952 1.02549 70.0014 0.634825 69.5897C0.219745 69.2021 0.0244141 68.7177 0.0244141 68.1364V51.2783C0.0244141 50.9149 0.12208 50.5758 0.292995 50.261C0.46391 49.9461 0.708074 49.6796 1.02549 49.5101C1.3429 49.3163 1.68473 49.2437 2.05098 49.2437H7.69117C9.44915 49.2437 10.9386 49.8492 12.2082 51.036C13.4779 52.2229 14.1371 53.6762 14.1615 55.3717C14.2104 56.607 13.8929 57.7696 13.2093 58.8353ZM4.10196 53.2886V57.6727H7.86209C8.4725 57.6727 9.00966 57.4547 9.42474 57.0187C9.83982 56.5828 10.0596 56.0741 10.0596 55.4686C10.0596 54.863 9.83982 54.3544 9.42474 53.9184C9.00966 53.4824 8.4725 53.2644 7.86209 53.2644H4.10196V53.2886ZM4.10196 66.126H9.49799C10.1084 66.1018 10.6456 65.8838 11.0606 65.472C11.4757 65.0603 11.6955 64.5274 11.6955 63.9219C11.6955 63.5343 11.5978 63.171 11.4025 62.8561C11.2071 62.5412 10.9386 62.2748 10.5967 62.0568C10.2549 61.863 9.88865 61.7419 9.49799 61.7419H4.10196V66.126Z" fill="#3C3C3B"/>
<path d="M30.1053 55.9527C30.496 55.5652 30.9843 55.3472 31.5459 55.3472C32.1075 55.3472 32.5958 55.5409 32.9865 55.9527C33.3771 56.3402 33.5969 56.8247 33.5969 57.406V62.9043C33.5969 64.8904 32.8888 66.5859 31.4726 67.9908C30.0565 69.4198 28.3718 70.1465 26.3696 70.1707C24.3431 70.2191 22.5851 69.4925 21.1201 68.015C19.6551 66.5375 18.9226 64.7693 18.9226 62.7347V57.406C18.9226 56.8247 19.1179 56.3402 19.533 55.9527C19.9237 55.5652 20.412 55.3472 20.9736 55.3472C21.5352 55.3472 22.0235 55.5409 22.4142 55.9527C22.8048 56.3402 23.0246 56.8247 23.0246 57.406V62.8316C23.0246 63.6793 23.2931 64.406 23.8547 65.0357C24.4163 65.6655 25.1 66.0288 25.9545 66.1015C26.9068 66.1984 27.7369 65.9319 28.445 65.3022C29.1531 64.6482 29.5193 63.8731 29.5193 62.9285V57.406C29.4949 56.8247 29.6902 56.3402 30.1053 55.9527Z" fill="#3C3C3B"/>
<path d="M44.0227 49.2192C45.9027 49.2192 47.6851 49.6794 49.321 50.5756C50.9569 51.4718 52.251 52.7071 53.2277 54.3057C54.2043 55.8801 54.7171 57.5999 54.7659 59.4649C54.8147 60.4096 54.7171 61.33 54.4973 62.2262C54.2776 63.1224 53.9357 63.9943 53.4718 64.8179C53.0079 65.6414 52.4463 66.368 51.7871 67.0462C51.1279 67.7244 50.3954 68.2815 49.5896 68.766C48.7839 69.2262 47.9293 69.5895 47.0015 69.8317C46.0981 70.0739 45.1703 70.195 44.218 70.195H38.7487C38.1872 70.195 37.6988 70.0012 37.3082 69.5895C36.8931 69.2019 36.6978 68.7175 36.6978 68.1362V51.2781C36.6978 50.721 36.8931 50.2365 37.3082 49.849C37.7232 49.4372 38.2116 49.2435 38.7487 49.2435H44.0227V49.2192ZM40.7753 66.1258H44.1936C45.976 66.1258 47.5142 65.4961 48.7595 64.2365C50.0047 62.977 50.6395 61.4753 50.6395 59.7071C50.6395 57.939 50.0047 56.4372 48.7595 55.1777C47.5142 53.9182 45.976 53.2884 44.1936 53.2884H40.7753V66.1258Z" fill="#3C3C3B"/>
<path d="M65.2163 49.2192C67.0963 49.2192 68.8787 49.6794 70.5146 50.5756C72.1505 51.4718 73.4446 52.7071 74.4213 54.3057C75.3979 55.8801 75.9107 57.5999 75.9595 59.4649C76.0083 60.4096 75.9107 61.33 75.6909 62.2262C75.4712 63.1224 75.1293 63.9943 74.6654 64.8179C74.2015 65.6414 73.6399 66.368 72.9807 67.0462C72.3215 67.7244 71.589 68.2815 70.7832 68.766C69.9775 69.2262 69.1229 69.5895 68.1951 69.8317C67.2917 70.0739 66.3639 70.195 65.4116 70.195H59.9423C59.3808 70.195 58.8924 70.0012 58.5018 69.5895C58.0867 69.2019 57.8914 68.7175 57.8914 68.1362V51.2781C57.8914 50.721 58.0867 50.2365 58.5018 49.849C58.9168 49.4372 59.4052 49.2435 59.9423 49.2435H65.2163V49.2192ZM61.9933 66.1258H65.4116C67.194 66.1258 68.7322 65.4961 69.9775 64.2365C71.2227 62.977 71.8575 61.4753 71.8575 59.7071C71.8575 57.939 71.2227 56.4372 69.9775 55.1777C68.7322 53.9182 67.194 53.2884 65.4116 53.2884H61.9933V66.1258Z" fill="#3C3C3B"/>
<path d="M88.9245 49.1951C89.7302 49.1951 90.3162 49.5342 90.7069 50.2366C91.0975 50.9391 91.0975 51.6173 90.6825 52.2955L85.848 60.2885V68.1605C85.848 68.7418 85.6527 69.2263 85.2376 69.6138C84.8469 70.0014 84.3586 70.2193 83.797 70.2193C83.2355 70.2193 82.7471 70.0256 82.3565 69.6138C81.9658 69.2263 81.746 68.7418 81.746 68.1605V60.2643L76.936 52.2712C76.5209 51.593 76.5209 50.9148 76.9116 50.2124C77.3023 49.51 77.8882 49.1709 78.694 49.1709C79.4509 49.1709 80.0369 49.4858 80.452 50.1398L83.8214 55.7107L87.1665 50.164C87.5572 49.51 88.1432 49.1951 88.9245 49.1951Z" fill="#3C3C3B"/>
<path d="M20.9736 53.2884C22.1063 53.2884 23.0246 52.3775 23.0246 51.2538C23.0246 50.1302 22.1063 49.2192 20.9736 49.2192C19.8409 49.2192 18.9226 50.1302 18.9226 51.2538C18.9226 52.3775 19.8409 53.2884 20.9736 53.2884Z" fill="#ED8CB9"/>
<path d="M31.5461 53.2884C32.6788 53.2884 33.5971 52.3775 33.5971 51.2538C33.5971 50.1302 32.6788 49.2192 31.5461 49.2192C30.4134 49.2192 29.4951 50.1302 29.4951 51.2538C29.4951 52.3775 30.4134 53.2884 31.5461 53.2884Z" fill="#ED8CB9"/>
</g>
<g clip-path="url(#clip1_137_69)">
<path d="M72.3657 17.2101L68.0374 14.0226C67.4777 13.6476 63.4478 10.5726 63.1493 10.3476C63.112 10.3476 63.112 10.3101 63.0747 10.3101C63 10.1976 62.9627 10.0851 62.8881 9.97256C59.3806 4.31006 52.8508 0.935059 45.5 0.935059C38.112 0.935059 31.5821 4.31006 28.0374 9.97256C27.9627 10.0851 27.8881 10.1976 27.8508 10.3101C27.8508 10.3101 27.8135 10.3101 27.8135 10.3476C27.515 10.5726 23.4851 13.6476 22.9254 14.0226L18.5971 17.2101C15.612 19.0476 14.6418 22.8726 16.3209 25.9101C18.5597 29.9226 22.1418 34.7226 26.3956 34.7976H26.4329C26.6568 34.7976 26.8806 34.7601 27.1418 34.6851C27.7015 34.4976 28.1866 34.1226 28.4478 33.5976C28.4851 33.5226 28.5597 33.4101 28.5971 33.2976C32.403 40.0101 41.5075 42.9351 45.5 42.9351C50.3508 42.9351 58.6344 39.9351 62.3657 33.2976C62.403 33.4101 62.4777 33.4851 62.515 33.5976C62.8135 34.1226 63.2612 34.4976 63.8209 34.6851C64.0821 34.7601 64.306 34.7976 64.5299 34.7976H64.5672C68.8583 34.7226 72.403 29.9226 74.6418 25.9101C76.3582 22.8726 75.3508 19.0476 72.3657 17.2101Z" fill="#F8F8F8"/>
<path d="M72.3657 17.2101L68.0374 14.0226C67.4777 13.6476 63.4478 10.5726 63.1493 10.3476C63.112 10.3476 63.112 10.3101 63.0747 10.3101C63 10.1976 62.9627 10.0851 62.8881 9.97256C59.3806 4.31006 52.8508 0.935059 45.5 0.935059C38.112 0.935059 31.5821 4.31006 28.0374 9.97256C27.9627 10.0851 27.8881 10.1976 27.8508 10.3101C27.8508 10.3101 27.8135 10.3101 27.8135 10.3476C27.515 10.5726 23.4851 13.6476 22.9254 14.0226L18.5971 17.2101C15.612 19.0476 14.6418 22.8726 16.3209 25.9101C18.5597 29.9226 22.1418 34.7226 26.3956 34.7976H26.4329C26.6568 34.7976 26.8806 34.7601 27.1418 34.6851C27.7015 34.4976 28.1866 34.1226 28.4478 33.5976C28.4851 33.5226 28.5597 33.4101 28.5971 33.2976C32.403 40.0101 41.5075 42.9351 45.5 42.9351C50.3508 42.9351 58.6344 39.9351 62.3657 33.2976C62.403 33.4101 62.4777 33.4851 62.515 33.5976C62.8135 34.1226 63.2612 34.4976 63.8209 34.6851C64.0821 34.7601 64.306 34.7976 64.5299 34.7976H64.5672C68.8583 34.7226 72.403 29.9226 74.6418 25.9101C76.3582 22.8726 75.3508 19.0476 72.3657 17.2101ZM73.4851 25.2726C71.4329 28.9851 68.1866 33.4101 64.5299 33.4851C64.4553 33.4851 64.3433 33.4851 64.2314 33.4476C63.9702 33.3726 63.7836 33.1851 63.6717 32.9601C63.4851 32.6226 63.2612 32.2101 63.112 31.7226C62.8508 31.0476 62.6269 30.1476 62.515 29.0601C62.2911 26.8476 62.4403 23.6226 63.5971 18.8226C63.6717 18.5226 63.7463 18.1476 63.8583 17.8476C63.9329 17.5851 63.9702 17.3226 64.0448 17.0601C64.1194 16.7976 64.0075 16.5726 63.8583 16.3851C63.8209 16.3476 63.7463 16.3101 63.6717 16.2726C63.6344 16.2726 63.6344 16.2351 63.5971 16.2351C63.2612 16.1601 62.8881 16.3476 62.7762 16.7226C62.6269 17.3601 62.4777 17.9601 62.3284 18.5226C60.7239 25.3101 60.9851 29.1351 61.6941 31.4976C61.6194 31.6851 61.5448 31.8726 61.4702 32.0601C58.2239 38.4726 50.0523 41.4726 45.5374 41.4726C41.7687 41.4726 32.9254 38.6226 29.6045 32.0601C29.5299 31.8726 29.4553 31.7226 29.3806 31.5351C30.0896 29.1726 30.3508 25.3101 28.7463 18.4851C28.5971 17.9226 28.4478 17.3226 28.2986 16.6851C28.2239 16.3476 27.8508 16.1226 27.4777 16.1976C27.4777 16.1976 27.4403 16.1976 27.4403 16.2351C27.3657 16.2726 27.2911 16.3101 27.2165 16.3476C27.0299 16.4976 26.9553 16.7601 27.0299 17.0226C27.1045 17.2851 27.1791 17.5476 27.2165 17.8101C27.2911 18.1476 27.403 18.4851 27.4403 18.7851C28.6344 23.8101 28.7463 27.0726 28.4851 29.3226C28.3732 30.2976 28.1493 31.0851 27.8881 31.7226C27.7015 32.1726 27.515 32.5476 27.3284 32.8851C27.2165 33.1101 26.9926 33.2601 26.7687 33.3726C26.6568 33.4101 26.5448 33.4101 26.4702 33.4101C22.8135 33.3351 19.5672 28.9101 17.515 25.1976C16.1717 22.7601 16.9553 19.7226 19.3806 18.2226L23.709 15.0351C24.0448 14.8101 25.5 13.7226 26.7687 12.7476C27.1045 12.4851 27.4403 12.2601 27.7015 12.0351L29.0821 10.9851C29.1568 10.8726 29.2314 10.7601 29.306 10.6476C32.5896 5.39756 38.6717 2.28506 45.5374 2.28506C52.403 2.28506 58.4851 5.39756 61.7687 10.6476C61.8433 10.7601 61.8806 10.8726 61.9553 10.9851L63.112 11.8476C63.4478 12.1101 63.8956 12.4476 64.3433 12.7851C65.5747 13.7226 67.0299 14.8101 67.3657 15.0351L68.0374 15.5226L71.6941 18.2226C74.0448 19.8351 74.8657 22.8726 73.4851 25.2726Z" fill="#3C3C3B"/>
<path d="M33.6716 28.9851C35.1966 28.9851 36.4328 28.4982 36.4328 27.8976C36.4328 27.2969 35.1966 26.8101 33.6716 26.8101C32.1466 26.8101 30.9104 27.2969 30.9104 27.8976C30.9104 28.4982 32.1466 28.9851 33.6716 28.9851Z" fill="#ED8CB9"/>
<path d="M57.291 28.9851C58.8159 28.9851 60.0522 28.4982 60.0522 27.8976C60.0522 27.2969 58.8159 26.8101 57.291 26.8101C55.766 26.8101 54.5298 27.2969 54.5298 27.8976C54.5298 28.4982 55.766 28.9851 57.291 28.9851Z" fill="#ED8CB9"/>
<path d="M51.2835 24.5602C51.2088 24.5602 51.1342 24.5227 51.0969 24.4852C45.2014 20.4352 40.0148 24.4477 39.9775 24.4852C39.8282 24.5977 39.6044 24.5977 39.4924 24.4102C39.3805 24.2602 39.3805 24.0352 39.567 23.9227C39.6043 23.8852 45.2014 19.5352 51.5446 23.9227C51.6939 24.0352 51.7312 24.2602 51.6193 24.4102C51.5073 24.5227 51.3954 24.5602 51.2835 24.5602Z" fill="#575756"/>
<path d="M49.5297 29.0976C47.664 29.0976 46.0595 28.0101 45.4998 27.5226C44.7162 28.1226 42.2162 29.8851 39.567 28.6851C39.3804 28.6101 39.3058 28.3851 39.3804 28.1976C39.455 28.0101 39.6789 27.9351 39.8655 28.0101C42.552 29.2101 45.2386 26.7726 45.2386 26.7726L45.4625 26.5476L45.6864 26.7726C45.7237 26.8101 48.4103 29.2101 51.0595 28.0101C51.2461 27.9351 51.4326 28.0101 51.5446 28.1976C51.6192 28.3851 51.5446 28.5726 51.358 28.6851C50.761 28.9851 50.1267 29.0976 49.5297 29.0976Z" fill="#575756"/>
<path d="M45.4998 32.5851C41.843 32.5851 40.6863 28.8726 40.6863 28.8351C40.649 28.6476 40.7236 28.4601 40.9102 28.3851C41.0968 28.3476 41.2833 28.4226 41.358 28.6101C41.3953 28.7601 42.3654 31.8351 45.4998 31.8351C48.6341 31.8351 49.6042 28.6476 49.6416 28.6101C49.6789 28.4226 49.9027 28.3101 50.0893 28.3851C50.2759 28.4226 50.3878 28.6476 50.3132 28.8351C50.2759 28.8726 49.1565 32.5851 45.4998 32.5851Z" fill="#575756"/>
<path d="M55.0147 22.3101C56.4779 22.3101 57.664 21.1181 57.664 19.6476C57.664 18.1772 56.4779 16.9851 55.0147 16.9851C53.5516 16.9851 52.3655 18.1772 52.3655 19.6476C52.3655 21.1181 53.5516 22.3101 55.0147 22.3101Z" fill="#3C3C3B"/>
<path d="M54.2686 20.1351C54.194 20.0976 54.1193 20.0976 54.0447 20.0976C54.0447 20.0601 54.082 20.0601 54.082 20.0226C54.2686 19.7226 54.1567 19.3476 53.8582 19.1976C53.5596 19.0101 53.1865 19.1226 53.0373 19.4226C52.8507 19.7226 52.9626 20.0976 53.2611 20.2476C53.4104 20.3226 53.5596 20.3601 53.6716 20.3226C53.5596 20.5101 53.6343 20.7726 53.8208 20.8851C54.0074 20.9976 54.3059 20.9226 54.4179 20.7351C54.5298 20.5476 54.4552 20.2851 54.2686 20.1351Z" fill="#FAFAFA"/>
<path d="M35.9476 22.3101C37.4107 22.3101 38.5968 21.1181 38.5968 19.6476C38.5968 18.1772 37.4107 16.9851 35.9476 16.9851C34.4845 16.9851 33.2983 18.1772 33.2983 19.6476C33.2983 21.1181 34.4845 22.3101 35.9476 22.3101Z" fill="#3C3C3B"/>
<path d="M35.1641 20.1351C35.0895 20.0976 35.0149 20.0976 34.9402 20.0976C34.9402 20.0601 34.9775 20.0601 34.9775 20.0226C35.1641 19.7226 35.0522 19.3476 34.7537 19.1976C34.4552 19.0101 34.082 19.1226 33.9328 19.4226C33.7462 19.7226 33.8581 20.0976 34.1566 20.2476C34.3059 20.3226 34.4552 20.3601 34.5671 20.3226C34.4552 20.5101 34.5298 20.7726 34.7163 20.8851C34.9029 20.9976 35.2014 20.9226 35.3134 20.7351C35.4253 20.5476 35.388 20.2851 35.1641 20.1351Z" fill="#FAFAFA"/>
<path d="M45.4997 27.0727C47.1483 27.0727 48.4848 26.334 48.4848 25.4227C48.4848 24.5114 47.1483 23.7727 45.4997 23.7727C43.8511 23.7727 42.5146 24.5114 42.5146 25.4227C42.5146 26.334 43.8511 27.0727 45.4997 27.0727Z" fill="black"/>
</g>
<defs>
<clipPath id="clip0_137_69">
<rect width="91" height="21" fill="white" transform="translate(0 49.1953)"/>
</clipPath>
<clipPath id="clip1_137_69">
<rect width="60" height="42" fill="white" transform="translate(15.5 0.935059)"/>
</clipPath>
</defs>
</svg>
