<svg width="210" height="49" viewBox="0 0 210 49" fill="none" xmlns="http://www.w3.org/2000/svg">
<g clip-path="url(#clip0_48_321)">
<path d="M98.0115 23.379C99.2115 24.279 100.211 25.379 100.811 26.779C101.511 28.179 101.811 29.579 101.711 31.079C101.611 33.579 100.711 35.579 98.8115 37.279C96.9115 38.979 94.8115 39.779 92.3115 39.779H82.0115C81.2115 39.779 80.5115 39.479 79.9115 38.879C79.3115 38.279 79.0115 37.579 79.0115 36.779V12.479C79.0115 11.979 79.1115 11.479 79.4115 10.979C79.7115 10.479 80.0115 10.179 80.5115 9.87905C81.0115 9.57905 81.5115 9.47905 82.0115 9.47905H90.1115C92.6115 9.47905 94.8115 10.379 96.6115 12.079C98.4115 13.779 99.4115 15.879 99.4115 18.379C99.4115 20.179 99.0115 21.879 98.0115 23.379ZM84.9115 15.379V21.679H90.3115C91.2115 21.679 91.9115 21.379 92.5115 20.779C93.1115 20.179 93.4115 19.379 93.4115 18.579C93.4115 17.679 93.1115 16.979 92.5115 16.379C91.9115 15.779 91.1115 15.479 90.3115 15.479H84.9115V15.379ZM84.9115 33.979H92.7115C93.6115 33.979 94.3115 33.679 94.9115 32.979C95.5115 32.379 95.8115 31.579 95.8115 30.779C95.8115 30.179 95.7115 29.679 95.4115 29.179C95.1115 28.679 94.7115 28.279 94.2115 27.979C93.7115 27.679 93.2115 27.579 92.6115 27.579H84.8115V33.979H84.9115Z" fill="#3C3C3B"/>
<path d="M122.311 19.279C122.911 18.679 123.611 18.379 124.411 18.379C125.211 18.379 125.911 18.679 126.511 19.279C127.111 19.879 127.411 20.579 127.411 21.379V29.379C127.411 32.279 126.411 34.679 124.411 36.779C122.411 38.879 119.911 39.879 117.111 39.979C114.211 40.079 111.611 38.979 109.511 36.879C107.411 34.779 106.311 32.179 106.311 29.179V21.379C106.311 20.579 106.611 19.879 107.211 19.279C107.811 18.679 108.511 18.379 109.311 18.379C110.111 18.379 110.811 18.679 111.411 19.279C112.011 19.879 112.311 20.579 112.311 21.379V29.279C112.311 30.479 112.711 31.579 113.511 32.479C114.311 33.379 115.311 33.879 116.511 34.079C117.911 34.179 119.111 33.879 120.111 32.879C121.111 31.979 121.611 30.779 121.611 29.479V21.479C121.411 20.479 121.711 19.779 122.311 19.279Z" fill="#3C3C3B"/>
<path d="M142.311 9.47905C145.011 9.47905 147.611 10.179 149.911 11.479C152.311 12.779 154.111 14.579 155.511 16.879C156.911 19.179 157.611 21.679 157.711 24.379C157.811 25.779 157.611 27.079 157.311 28.379C157.011 29.679 156.511 30.979 155.811 32.079C155.111 33.279 154.311 34.379 153.411 35.279C152.511 36.279 151.411 37.079 150.211 37.779C149.011 38.479 147.811 38.979 146.511 39.379C145.211 39.779 143.911 39.879 142.511 39.879H134.611C133.811 39.879 133.111 39.579 132.511 38.979C131.911 38.379 131.611 37.679 131.611 36.879V12.479C131.611 11.679 131.911 10.979 132.511 10.379C133.111 9.77905 133.811 9.47905 134.611 9.47905H142.311ZM137.711 33.979H142.611C145.211 33.979 147.411 33.079 149.211 31.279C151.011 29.479 151.911 27.279 151.911 24.679C151.911 22.079 151.011 19.979 149.211 18.079C147.411 16.279 145.211 15.379 142.611 15.379H137.711V33.979Z" fill="#3C3C3B"/>
<path d="M172.811 9.47905C175.511 9.47905 178.111 10.179 180.411 11.479C182.811 12.779 184.611 14.579 186.011 16.879C187.411 19.179 188.111 21.679 188.211 24.379C188.311 25.779 188.111 27.079 187.811 28.379C187.511 29.679 187.011 30.979 186.311 32.079C185.611 33.279 184.811 34.379 183.911 35.279C183.011 36.279 181.911 37.079 180.711 37.779C179.511 38.479 178.311 38.979 177.011 39.379C175.711 39.779 174.411 39.879 173.011 39.879H165.111C164.311 39.879 163.611 39.579 163.011 38.979C162.411 38.379 162.111 37.679 162.111 36.879V12.479C162.111 11.679 162.411 10.979 163.011 10.379C163.611 9.77905 164.311 9.47905 165.111 9.47905H172.811ZM168.111 33.979H173.011C175.611 33.979 177.811 33.079 179.611 31.279C181.411 29.479 182.311 27.279 182.311 24.679C182.311 22.079 181.411 19.979 179.611 18.079C177.811 16.279 175.611 15.379 173.011 15.379H168.111V33.979Z" fill="#3C3C3B"/>
<path d="M206.912 9.47905C208.112 9.47905 208.912 9.97905 209.512 10.979C210.112 11.979 210.012 12.979 209.512 13.979L202.512 25.579V36.879C202.512 37.679 202.211 38.379 201.611 38.979C201.011 39.579 200.312 39.879 199.512 39.879C198.712 39.879 198.012 39.579 197.412 38.979C196.812 38.379 196.512 37.679 196.512 36.879V25.479L189.611 13.879C189.011 12.879 189.011 11.879 189.611 10.879C190.211 9.87905 191.012 9.37905 192.212 9.37905C193.312 9.37905 194.112 9.87905 194.712 10.779L199.512 18.879L204.412 10.879C204.912 9.87905 205.812 9.47905 206.912 9.47905Z" fill="#3C3C3B"/>
<path d="M109.211 15.479C110.868 15.479 112.211 14.1359 112.211 12.479C112.211 10.8222 110.868 9.47905 109.211 9.47905C107.555 9.47905 106.211 10.8222 106.211 12.479C106.211 14.1359 107.555 15.479 109.211 15.479Z" fill="#ED8CB9"/>
<path d="M124.411 15.479C126.068 15.479 127.411 14.1359 127.411 12.479C127.411 10.8222 126.068 9.47905 124.411 9.47905C122.755 9.47905 121.411 10.8222 121.411 12.479C121.411 14.1359 122.755 15.479 124.411 15.479Z" fill="#ED8CB9"/>
<path d="M65.1115 19.279L60.2115 15.679C59.6115 15.279 55.0115 11.779 54.6115 11.479H54.5115C54.4115 11.379 54.4115 11.179 54.3115 11.079C50.3115 4.67905 42.9115 0.879047 34.5115 0.879047C26.1115 0.879047 18.7115 4.67905 14.7115 11.079C14.6115 11.179 14.5115 11.379 14.5115 11.479C14.5115 11.479 14.5115 11.479 14.4115 11.479C14.1115 11.779 9.5115 15.179 8.8115 15.679L3.9115 19.279C0.511497 21.379 -0.588503 25.679 1.3115 29.179C3.8115 33.679 7.9115 39.1791 12.8115 39.279C13.1115 39.279 13.3115 39.279 13.6115 39.179C14.2115 38.979 14.8115 38.579 15.1115 37.979C15.2115 37.879 15.2115 37.779 15.3115 37.679C19.6115 45.279 30.0115 48.579 34.5115 48.579C40.0115 48.579 49.4115 45.179 53.7115 37.679C53.8115 37.779 53.8115 37.879 53.9115 37.979C54.2115 38.579 54.8115 38.979 55.4115 39.179C55.7115 39.279 55.9115 39.279 56.2115 39.279C61.1115 39.1791 65.1115 33.779 67.7115 29.179C69.7115 25.779 68.5115 21.379 65.1115 19.279Z" fill="#F8F8F8"/>
<path d="M65.1115 19.279L60.2115 15.679C59.6115 15.279 55.0115 11.779 54.6115 11.479H54.5115C54.4115 11.379 54.4115 11.179 54.3115 11.079C50.3115 4.67905 42.9115 0.879047 34.5115 0.879047C26.1115 0.879047 18.7115 4.67905 14.7115 11.079C14.6115 11.179 14.5115 11.379 14.5115 11.479C14.5115 11.479 14.5115 11.479 14.4115 11.479C14.1115 11.779 9.5115 15.179 8.8115 15.679L3.9115 19.279C0.511497 21.379 -0.588503 25.679 1.3115 29.179C3.8115 33.679 7.9115 39.1791 12.8115 39.279C13.1115 39.279 13.3115 39.279 13.6115 39.179C14.2115 38.979 14.8115 38.579 15.1115 37.979C15.2115 37.879 15.2115 37.779 15.3115 37.679C19.6115 45.279 30.0115 48.579 34.5115 48.579C40.0115 48.579 49.4115 45.179 53.7115 37.679C53.8115 37.779 53.8115 37.879 53.9115 37.979C54.2115 38.579 54.8115 38.979 55.4115 39.179C55.7115 39.279 55.9115 39.279 56.2115 39.279C61.1115 39.1791 65.1115 33.779 67.7115 29.179C69.7115 25.779 68.5115 21.379 65.1115 19.279ZM66.4115 28.479C64.0115 32.679 60.4115 37.6791 56.2115 37.779C56.1115 37.779 56.0115 37.779 55.9115 37.679C55.6115 37.579 55.4115 37.379 55.2115 37.179C55.0115 36.779 54.8115 36.279 54.5115 35.779C54.2115 34.979 54.0115 33.979 53.8115 32.779C53.5115 30.279 53.7115 26.579 55.0115 21.179C55.1115 20.779 55.2115 20.479 55.3115 20.079C55.4115 19.779 55.4115 19.479 55.5115 19.179C55.6115 18.879 55.5115 18.579 55.3115 18.479C55.2115 18.379 55.2115 18.379 55.1115 18.379H55.0115C54.6115 18.279 54.2115 18.479 54.1115 18.879C53.9115 19.579 53.7115 20.279 53.6115 20.879C51.8115 28.579 52.1115 32.879 52.9115 35.579C52.8115 35.779 52.7115 35.979 52.6115 36.279C49.0115 43.479 39.7115 46.879 34.5115 46.879C30.2115 46.879 20.1115 43.679 16.4115 36.179C16.3115 35.979 16.2115 35.779 16.1115 35.579C16.9115 32.879 17.2115 28.579 15.4115 20.779C15.2115 20.079 15.1115 19.479 14.9115 18.779C14.8115 18.379 14.4115 18.179 14.0115 18.279C14.0115 18.279 14.0115 18.279 13.9115 18.279C13.8115 18.279 13.7115 18.379 13.7115 18.379C13.5115 18.579 13.4115 18.879 13.4115 19.179C13.5115 19.479 13.6115 19.779 13.6115 20.079C13.7115 20.479 13.8115 20.779 13.9115 21.179C15.2115 26.879 15.4115 30.579 15.1115 33.079C15.0115 34.179 14.7115 35.079 14.4115 35.779C14.2115 36.279 14.0115 36.679 13.8115 37.079C13.7115 37.379 13.4115 37.479 13.1115 37.579C13.0115 37.579 12.8115 37.679 12.8115 37.679C8.6115 37.579 5.0115 32.579 2.6115 28.379C1.1115 25.679 2.0115 22.179 4.7115 20.479L9.6115 16.879C10.0115 16.579 11.7115 15.379 13.1115 14.279C13.5115 13.979 13.9115 13.679 14.2115 13.479L15.8115 12.279C15.9115 12.179 16.0115 11.979 16.0115 11.879C19.7115 5.97905 26.6115 2.37905 34.5115 2.37905C42.4115 2.37905 49.2115 5.87905 53.0115 11.879C53.1115 11.979 53.1115 12.179 53.2115 12.279L54.5115 13.279C54.9115 13.579 55.4115 13.979 55.9115 14.379C57.3115 15.479 59.0115 16.679 59.3115 16.979L60.1115 17.579L64.2115 20.679C67.0115 22.279 68.0115 25.679 66.4115 28.479Z" fill="#3C3C3B"/>
<path d="M21.1115 32.579C22.8236 32.579 24.2115 32.0418 24.2115 31.379C24.2115 30.7163 22.8236 30.179 21.1115 30.179C19.3994 30.179 18.0115 30.7163 18.0115 31.379C18.0115 32.0418 19.3994 32.579 21.1115 32.579Z" fill="#ED8CB9"/>
<path d="M48.0115 32.579C49.7236 32.579 51.1115 32.0418 51.1115 31.379C51.1115 30.7163 49.7236 30.179 48.0115 30.179C46.2994 30.179 44.9115 30.7163 44.9115 31.379C44.9115 32.0418 46.2994 32.579 48.0115 32.579Z" fill="#ED8CB9"/>
<path d="M41.1115 27.679C41.0115 27.679 40.9115 27.679 40.9115 27.5791C34.2115 22.9791 28.3115 27.4791 28.2115 27.5791C28.0115 27.679 27.8115 27.679 27.6115 27.479C27.5115 27.279 27.5115 27.079 27.7115 26.879C27.8115 26.779 34.1115 21.879 41.3115 26.879C41.5115 26.979 41.5115 27.279 41.4115 27.479C41.4115 27.579 41.2115 27.679 41.1115 27.679Z" fill="#575756"/>
<path d="M39.1115 32.779C37.0115 32.779 35.2115 31.579 34.5115 30.979C33.6115 31.679 30.8115 33.679 27.8115 32.279C27.6115 32.179 27.5115 31.979 27.6115 31.779C27.7115 31.579 27.9115 31.4791 28.1115 31.5791C31.1115 32.9791 34.2115 30.179 34.2115 30.179L34.5115 29.979L34.8115 30.179C34.8115 30.179 37.9115 32.9791 40.9115 31.5791C41.1115 31.4791 41.3115 31.579 41.4115 31.779C41.5115 31.979 41.4115 32.179 41.2115 32.279C40.5115 32.679 39.8115 32.779 39.1115 32.779Z" fill="#575756"/>
<path d="M34.5115 36.679C30.3115 36.679 29.0115 32.479 29.0115 32.479C28.9115 32.279 29.1115 32.079 29.3115 31.979C29.5115 31.879 29.7115 32.079 29.8115 32.279C29.8115 32.379 30.9115 35.979 34.5115 35.979C38.1115 35.979 39.2115 32.379 39.2115 32.279C39.3115 32.079 39.5115 31.979 39.7115 31.979C39.9115 32.079 40.0115 32.279 40.0115 32.479C40.0115 32.479 38.7115 36.679 34.5115 36.679Z" fill="#575756"/>
<path d="M45.4115 25.079C47.0684 25.079 48.4115 23.7359 48.4115 22.079C48.4115 20.4222 47.0684 19.079 45.4115 19.079C43.7546 19.079 42.4115 20.4222 42.4115 22.079C42.4115 23.7359 43.7546 25.079 45.4115 25.079Z" fill="#3C3C3B"/>
<path d="M44.5115 22.679C44.4115 22.579 44.3115 22.5791 44.2115 22.5791C44.2115 22.5791 44.2115 22.5791 44.3115 22.4791C44.5115 22.1791 44.4115 21.6791 44.1115 21.5791C43.8115 21.3791 43.3115 21.479 43.2115 21.779C43.0115 22.079 43.1115 22.579 43.4115 22.679C43.6115 22.779 43.7115 22.779 43.9115 22.779C43.8115 22.979 43.9115 23.279 44.1115 23.379C44.3115 23.479 44.6115 23.479 44.8115 23.179C44.8115 23.079 44.7115 22.779 44.5115 22.679Z" fill="#FAFAFA"/>
<path d="M23.7115 25.079C25.3683 25.079 26.7115 23.7359 26.7115 22.079C26.7115 20.4222 25.3683 19.079 23.7115 19.079C22.0546 19.079 20.7115 20.4222 20.7115 22.079C20.7115 23.7359 22.0546 25.079 23.7115 25.079Z" fill="#3C3C3B"/>
<path d="M22.8115 22.679C22.7115 22.579 22.6115 22.5791 22.5115 22.5791C22.5115 22.5791 22.5115 22.5791 22.6115 22.4791C22.8115 22.1791 22.7115 21.6791 22.4115 21.5791C22.1115 21.3791 21.6115 21.479 21.5115 21.779C21.3115 22.079 21.4115 22.579 21.7115 22.679C21.9115 22.779 22.0115 22.779 22.2115 22.779C22.1115 22.979 22.2115 23.279 22.4115 23.379C22.6115 23.479 22.9115 23.479 23.1115 23.179C23.3115 22.879 23.0115 22.779 22.8115 22.679Z" fill="#FAFAFA"/>
<path d="M34.5115 30.479C36.3893 30.479 37.9115 29.6284 37.9115 28.579C37.9115 27.5297 36.3893 26.679 34.5115 26.679C32.6337 26.679 31.1115 27.5297 31.1115 28.579C31.1115 29.6284 32.6337 30.479 34.5115 30.479Z" fill="black"/>
</g>
<defs>
<clipPath id="clip0_48_321">
<rect width="209.5" height="47.6" fill="white" transform="translate(0.411499 0.879047)"/>
</clipPath>
</defs>
</svg>
