<svg width="25" height="26" viewBox="0 0 25 26" fill="none" xmlns="http://www.w3.org/2000/svg">
<path d="M12.5002 15.0732C11.4093 15.0732 10.5249 14.1889 10.5249 13.0979C10.5249 12.0069 11.4093 11.1226 12.5002 11.1226C13.5912 11.1226 14.4756 12.0069 14.4756 13.0979C14.4756 14.1889 13.5912 15.0732 12.5002 15.0732Z" fill="#333333"/>
<path d="M9.97386 8.10645H15.0265C15.6809 8.10645 16.3084 8.36637 16.771 8.82905C17.2337 9.29172 17.4937 9.91925 17.4937 10.5736V15.6246C17.4937 16.2789 17.2337 16.9064 16.771 17.3691C16.3084 17.8318 15.6809 18.0917 15.0265 18.0917H9.97386C9.31954 18.0917 8.69202 17.8318 8.22934 17.3691C7.76666 16.9064 7.50674 16.2789 7.50674 15.6246V10.5719C7.50717 9.91789 7.76729 9.29079 8.22992 8.82847C8.69255 8.36615 9.31982 8.10645 9.97386 8.10645ZM12.5002 16.3318C13.1398 16.3322 13.7651 16.1428 14.2971 15.7877C14.8291 15.4326 15.2438 14.9277 15.4888 14.3368C15.7338 13.746 15.7981 13.0958 15.6735 12.4684C15.5489 11.8411 15.2411 11.2647 14.7889 10.8124C14.3367 10.36 13.7606 10.0518 13.1333 9.92693C12.506 9.80203 11.8557 9.86597 11.2648 10.1107C10.6738 10.3554 10.1687 10.7698 9.81333 11.3016C9.45795 11.8334 9.26826 12.4586 9.26826 13.0983C9.26913 13.9553 9.60987 14.777 10.2157 15.3832C10.8216 15.9894 11.6431 16.3305 12.5002 16.3318ZM9.24853 10.664C9.40676 10.6644 9.56153 10.6177 9.69324 10.53C9.82494 10.4423 9.92765 10.3175 9.98836 10.1713C10.0491 10.0252 10.065 9.86435 10.0342 9.70914C10.0034 9.55393 9.92728 9.41135 9.81539 9.29946C9.7035 9.18757 9.56092 9.11141 9.40571 9.08061C9.2505 9.04982 9.08964 9.06579 8.94351 9.1265C8.79738 9.1872 8.67256 9.28991 8.58485 9.42161C8.49714 9.55332 8.4505 9.70809 8.45082 9.86633C8.45126 10.0778 8.53544 10.2804 8.68494 10.4299C8.83445 10.5794 9.0371 10.6636 9.24853 10.664Z" fill="#333333"/>
<path d="M12.4999 0.597656C14.9722 0.597656 17.389 1.33077 19.4446 2.7043C21.5002 4.07783 23.1024 6.03008 24.0485 8.31417C24.9946 10.5983 25.2421 13.1116 24.7598 15.5364C24.2775 17.9612 23.087 20.1885 21.3388 21.9366C19.5906 23.6848 17.3633 24.8753 14.9386 25.3577C12.5138 25.84 10.0004 25.5924 7.71633 24.6463C5.43223 23.7002 3.47999 22.0981 2.10646 20.0424C0.732931 17.9868 -0.000185979 15.57 -0.000185979 13.0977C-0.000185979 9.78252 1.31678 6.60307 3.66101 4.25885C6.00523 1.91463 9.18467 0.597656 12.4999 0.597656ZM6.24986 15.6241C6.25073 16.6114 6.64333 17.558 7.34147 18.2562C8.03961 18.9543 8.98625 19.3469 9.97357 19.3478H15.0262C16.0134 19.3465 16.9598 18.9538 17.6579 18.2557C18.3559 17.5577 18.7486 16.6113 18.7499 15.6241V10.5714C18.7486 9.58422 18.3559 8.63784 17.6579 7.93979C16.9598 7.24175 16.0134 6.84901 15.0262 6.8477H9.97357C8.98638 6.84901 8.04 7.24175 7.34195 7.93979C6.6439 8.63784 6.25116 9.58422 6.24986 10.5714V15.6241Z" fill="#333333"/>
</svg>
