<svg width="25" height="26" viewBox="0 0 25 26" fill="none" xmlns="http://www.w3.org/2000/svg">
<path d="M15.5953 11.5953C15.7006 13.1956 15.3322 14.0624 15.9555 14.0624C16.5789 14.0624 16.2121 13.2005 16.3157 11.5953C16.5394 11.5558 17.2335 11.7499 17.2335 11.2433C17.2339 11.1966 17.2251 11.1502 17.2075 11.107C17.19 11.0637 17.164 11.0243 17.1311 10.9911C17.0982 10.9579 17.0591 10.9316 17.016 10.9136C16.9729 10.8956 16.9266 10.8864 16.8799 10.8864C15.5641 10.9801 14.6792 10.643 14.6792 11.2367C14.6792 11.7581 15.3437 11.5525 15.5953 11.5953Z" fill="#333333"/>
<path d="M13.3421 11.2465C13.3751 11.145 13.4393 11.0566 13.5255 10.9939C13.6118 10.9312 13.7157 10.8975 13.8224 10.8975C13.929 10.8975 14.033 10.9312 14.1192 10.9939C14.2055 11.0566 14.2697 11.145 14.3026 11.2465C14.8142 12.8353 15.5017 13.8156 15.079 14.0096C14.5181 14.2646 14.5066 13.6906 14.3717 13.4373H13.273C13.1382 13.6906 13.125 14.2596 12.5642 14.0096C12.1415 13.8156 12.8191 12.86 13.3421 11.2465ZM14.1826 12.8024L13.8158 11.7876L13.4556 12.8024H14.1826Z" fill="#333333"/>
<path d="M10.3963 13.6822C10.3963 14.2053 11.2187 13.9437 11.8996 14.0112C12.5016 14.0112 12.1348 13.1888 12.245 11.2497C12.245 10.776 11.5082 10.7776 11.5082 11.2497V13.3533C11.1595 13.401 10.3963 13.1888 10.3963 13.6822Z" fill="#333333"/>
<path d="M7.99008 13.4767C7.70061 13.855 8.27791 14.2875 8.56409 13.9076L9.40949 12.7941L9.53449 12.9191V13.7004C9.5347 13.7477 9.54423 13.7945 9.56253 13.8381C9.58084 13.8817 9.60755 13.9213 9.64115 13.9546C9.67475 13.9879 9.71458 14.0142 9.75836 14.0321C9.80215 14.05 9.84903 14.0591 9.89633 14.0589C10.523 14.0589 10.148 13.1576 10.2565 11.2497C10.257 11.2021 10.248 11.1549 10.2301 11.1109C10.2122 11.0668 10.1857 11.0267 10.1522 10.9929C10.1187 10.9591 10.0789 10.9323 10.0349 10.914C9.99102 10.8957 9.94391 10.8862 9.89633 10.8862C9.35192 10.8862 9.58712 11.656 9.53613 12.0145C8.51475 11.0375 8.53942 10.9356 8.3289 10.9356C8.03942 10.9356 7.86179 11.2958 8.05587 11.4866L8.87824 12.3089L7.99008 13.4767Z" fill="#333333"/>
<path d="M12.5 0.195312C14.9723 0.195313 17.389 0.928424 19.4446 2.30194C21.5002 3.67546 23.1024 5.62769 24.0485 7.91177C24.9946 10.1958 25.2421 12.7092 24.7598 15.1339C24.2775 17.5587 23.087 19.786 21.3388 21.5341C19.5907 23.2823 17.3634 24.4728 14.9386 24.9551C12.5139 25.4374 10.0005 25.1899 7.71646 24.2438C5.43238 23.2977 3.48015 21.6955 2.10663 19.6399C0.733111 17.5843 -2.50966e-07 15.1676 -2.50966e-07 12.6953C-2.50966e-07 9.3801 1.31696 6.20068 3.66116 3.85648C6.00537 1.51227 9.18479 0.195313 12.5 0.195312ZM12.5 17.2496C12.8714 17.2507 13.2425 17.2248 13.6102 17.1723C17.2072 19.692 16.6941 19.4963 15.8207 16.5029C17.5806 15.6361 18.75 14.1032 18.75 12.3548C18.75 9.6509 15.9539 7.46011 12.5 7.46011C9.04605 7.46011 6.25 9.6509 6.25 12.3548C6.25 15.0588 9.04605 17.2496 12.5 17.2496Z" fill="#333333"/>
</svg>
