<svg width="25" height="26" viewBox="0 0 25 26" fill="none" xmlns="http://www.w3.org/2000/svg">
<g clip-path="url(#clip0_55_141)">
<path d="M12.5 0.597656C14.9723 0.597656 17.389 1.33077 19.4446 2.70429C21.5002 4.0778 23.1024 6.03004 24.0485 8.31411C24.9946 10.5982 25.2421 13.1115 24.7598 15.5363C24.2775 17.961 23.087 20.1883 21.3388 21.9365C19.5907 23.6846 17.3634 24.8752 14.9386 25.3575C12.5139 25.8398 10.0005 25.5922 7.71645 24.6462C5.43238 23.7001 3.48014 22.0979 2.10662 20.0423C0.733106 17.9867 -4.78092e-06 15.5699 -4.78092e-06 13.0977C-4.78092e-06 9.78245 1.31696 6.60303 3.66116 4.25882C6.00537 1.91462 9.18479 0.597656 12.5 0.597656ZM6.27467 9.31476C6.57013 9.75859 6.93113 10.1551 7.34539 10.4907C7.39761 10.5343 7.43947 10.5889 7.46793 10.6506C7.49638 10.7124 7.51071 10.7797 7.50986 10.8477V10.8888C7.51469 11.7801 7.67843 12.6635 7.99342 13.4973C8.31797 14.3725 8.80017 15.1808 9.41611 15.8822C10.2438 16.8245 11.3086 17.5281 12.5 17.92C13.2828 18.1741 14.1013 18.3013 14.9243 18.2967C16.23 18.2965 17.5124 17.9509 18.6414 17.295C18.6819 17.272 18.7137 17.2365 18.7321 17.1937C18.7506 17.151 18.7545 17.1034 18.7434 17.0582C18.732 17.0137 18.7061 16.9743 18.6697 16.9463C18.6334 16.9183 18.5887 16.9032 18.5428 16.9036H18.2303C17.2381 16.9053 16.268 16.611 15.4441 16.0582C15.9349 15.978 16.3941 15.7642 16.7713 15.4401C17.1485 15.116 17.4291 14.6942 17.5822 14.221C17.5901 14.1973 17.5915 14.172 17.5863 14.1476C17.5812 14.1231 17.5697 14.1005 17.553 14.082C17.5363 14.0634 17.515 14.0496 17.4912 14.042C17.4675 14.0343 17.4421 14.0331 17.4178 14.0384C17.2681 14.0666 17.1161 14.0809 16.9638 14.0812H16.9062C17.3808 13.8634 17.782 13.5128 18.0613 13.0717C18.3407 12.6307 18.4862 12.1181 18.4803 11.596C18.4801 11.5716 18.4736 11.5476 18.4614 11.5264C18.4492 11.5053 18.4318 11.4876 18.4107 11.4752C18.3897 11.4628 18.3658 11.456 18.3414 11.4556C18.317 11.4551 18.2928 11.461 18.2714 11.4727C18.0784 11.5804 17.8714 11.6607 17.6562 11.7111C18.0811 11.2905 18.3544 10.7408 18.4333 10.1482C18.5121 9.55561 18.3922 8.95357 18.0921 8.43647C18.0806 8.41671 18.0645 8.40004 18.0451 8.38788C18.0257 8.37572 18.0037 8.36844 17.9809 8.36666C17.9581 8.36488 17.9352 8.36866 17.9142 8.37767C17.8932 8.38668 17.8746 8.40064 17.8602 8.41838C17.2656 9.15312 16.5297 9.76121 15.696 10.2067C14.8624 10.6522 13.9479 10.9261 13.0066 11.0121H12.9934C12.9796 11.0117 12.966 11.0085 12.9534 11.0027C12.9409 10.9969 12.9296 10.9885 12.9204 10.9782C12.9112 10.9679 12.9041 10.9558 12.8997 10.9427C12.8953 10.9296 12.8936 10.9157 12.8947 10.9019C12.9313 10.5719 12.9102 10.2379 12.8322 9.91509C12.7261 9.4763 12.5083 9.07242 12.1999 8.74272C11.8915 8.41301 11.5031 8.16869 11.0724 8.03351C10.796 7.94719 10.5083 7.90283 10.2187 7.90193C9.56229 7.90118 8.92819 8.14042 8.43585 8.57463C8.37207 8.63169 8.28952 8.6633 8.20394 8.66345C8.17617 8.66285 8.14857 8.65899 8.12171 8.65193C7.6594 8.5349 7.21628 8.35211 6.80592 8.10917C6.78138 8.09403 6.75277 8.08686 6.724 8.08861C6.69522 8.09037 6.6677 8.10098 6.64519 8.11899C6.62268 8.137 6.60628 8.16152 6.59825 8.18921C6.59022 8.21689 6.59094 8.24638 6.60032 8.27364C6.73719 8.70421 6.9811 9.09299 7.30921 9.40358C7.01341 9.33385 6.72485 9.23638 6.44736 9.11246C6.42015 9.10224 6.39045 9.10066 6.36231 9.10792C6.33416 9.11518 6.30894 9.13094 6.29007 9.15304C6.27119 9.17515 6.25959 9.20254 6.25684 9.23147C6.25408 9.26041 6.26031 9.28949 6.27467 9.31476Z" fill="#333333"/>
</g>
<defs>
<clipPath id="clip0_55_141">
<rect width="25" height="25" fill="white" transform="matrix(-1 0 0 1 25 0.597656)"/>
</clipPath>
</defs>
</svg>
