<svg width="25" height="26" viewBox="0 0 25 26" fill="none" xmlns="http://www.w3.org/2000/svg">
<g clip-path="url(#clip0_55_151)">
<path d="M11.0049 15.0898L14.9046 12.6951L11.0049 10.2987V15.0898Z" fill="#333333"/>
<path d="M12.5 25.1953C10.0277 25.1953 7.61099 24.4622 5.55538 23.0887C3.49976 21.7152 1.89761 19.7629 0.951511 17.4789C0.00541602 15.1948 -0.242126 12.6814 0.24019 10.2567C0.722505 7.83192 1.91301 5.60463 3.66117 3.85648C5.40933 2.10832 7.63661 0.917809 10.0614 0.435493C12.4861 -0.0468219 14.9995 0.200721 17.2835 1.14682C19.5676 2.09291 21.5199 3.69507 22.8934 5.75068C24.2669 7.8063 25 10.223 25 12.6953C25 16.0105 23.683 19.1899 21.3388 21.5341C18.9946 23.8784 15.8152 25.1953 12.5 25.1953ZM18.4572 9.68709C18.2072 8.919 17.3799 8.45189 16.6184 8.34498C13.8805 8.05386 11.1195 8.05386 8.38158 8.34498C7.62007 8.45189 6.79277 8.919 6.54277 9.68709C6.15298 11.6731 6.15298 13.7159 6.54277 15.7019C6.79277 16.4782 7.62007 16.9371 8.38816 17.044C11.1261 17.3351 13.8871 17.3351 16.625 17.044C17.3865 16.9371 18.2138 16.4716 18.4638 15.7019C18.8514 13.7155 18.8492 11.6727 18.4572 9.68709Z" fill="#333333"/>
</g>
<defs>
<clipPath id="clip0_55_151">
<rect width="25" height="25" fill="white" transform="matrix(1 0 0 -1 0 25.1953)"/>
</clipPath>
</defs>
</svg>
